<svg width="39" height="30" viewBox="0 0 39 30" fill="none" xmlns="http://www.w3.org/2000/svg">
<path d="M14.7871 21.5374L19.3434 27.4999L23.8996 21.5374C22.4934 20.9187 20.9746 20.5811 19.3434 20.5811C17.7121 20.5811 16.1934 20.9187 14.7871 21.5374Z" fill="white"/>
<path d="M23.9 21.5371L19.3438 26.0933L14.7875 21.5371C11.6657 22.9152 9.2469 25.6433 8.375 29.0183H30.3126C29.4407 25.6433 27.0219 22.9152 23.9 21.5371Z" fill="#437C90"/>
<path d="M19.3438 18.8936C22.4503 18.8936 24.9688 16.3752 24.9688 13.2686C24.9688 10.1619 22.4503 7.64355 19.3438 7.64355C16.2371 7.64355 13.7188 10.1619 13.7188 13.2686C13.7188 16.3752 16.2371 18.8936 19.3438 18.8936Z" fill="#437C90"/>
<path d="M0 16.4183H8.1563V14.2246L4.7813 10.8496C2.4469 11.8902 0.6751 13.9433 0 16.4183Z" fill="white"/>
<path d="M8.1562 8.9375C10.4862 8.9375 12.3749 7.0487 12.3749 4.7188C12.3749 2.3888 10.4862 0.5 8.1562 0.5C5.8262 0.5 3.9375 2.3888 3.9375 4.7188C3.9375 7.0487 5.8262 8.9375 8.1562 8.9375Z" fill="white"/>
<path d="M38.6875 16.4183C38.0124 13.9152 36.2407 11.8902 33.9062 10.8496L30.5312 14.2246V16.4183H38.6875Z" fill="#FBDCC9"/>
<path d="M30.5312 8.9375C32.8612 8.9375 34.7499 7.0487 34.7499 4.7188C34.7499 2.3888 32.8612 0.5 30.5312 0.5C28.2012 0.5 26.3125 2.3888 26.3125 4.7188C26.3125 7.0487 28.2012 8.9375 30.5312 8.9375Z" fill="#FBDCC9"/>
</svg>
