<svg width="127" height="38" viewBox="0 0 127 38" fill="none" xmlns="http://www.w3.org/2000/svg">
<path d="M20.4584 17.1941L8.92066 11.3257L13.4082 11.6613L14.2172 11.5461L14.9107 11.2003L15.6042 10.5087C15.9509 10.1629 16.2051 9.28684 16.2976 9.0102C16.3901 8.73356 16.3361 3.0548 16.2976 0.25L20.4584 17.1941Z" fill="url(#paint0_linear_238_1892)"/>
<ellipse cx="13.4092" cy="8.43422" rx="2.31152" ry="2.30532" fill="#EF7528"/>
<path d="M20.527 17.6016L23.5537 5.04252L24.2745 9.47263L24.5759 10.2302L25.075 10.8219L25.9112 11.3329C26.3294 11.5883 27.2428 11.6303 27.5341 11.6554C27.8254 11.6804 33.3494 10.3017 36.075 9.60927L20.527 17.6016Z" fill="url(#paint1_linear_238_1892)"/>
<ellipse cx="2.30566" cy="2.31119" rx="2.30566" ry="2.31119" transform="matrix(0.234161 0.972198 -0.972483 0.232973 29.1289 5.93848)" fill="#EF7528"/>
<path d="M20.3411 17.5616L33.0555 15.101L29.3122 17.5921L28.7459 18.1797L28.4129 18.878L28.2935 19.8488C28.2337 20.3342 28.5742 21.1806 28.6721 21.4553C28.7701 21.7301 32.3184 26.1717 34.0804 28.3582L20.3411 17.5616Z" fill="url(#paint2_linear_238_1892)"/>
<ellipse cx="2.30917" cy="2.30767" rx="2.30917" ry="2.30767" transform="matrix(-0.788778 0.614678 -0.616734 -0.787171 34.5508 20.5322)" fill="#EF7528"/>
<path d="M20.3447 17.5398L24.332 29.8292L21.3996 26.4248L20.7462 25.9352L20.0109 25.6901L19.0302 25.6893C18.5399 25.6889 17.7386 26.1283 17.477 26.2585C17.2153 26.3887 13.2238 30.4389 11.2607 32.4477L20.3447 17.5398Z" fill="url(#paint3_linear_238_1892)"/>
<ellipse cx="2.30842" cy="2.30843" rx="2.30842" ry="2.30843" transform="matrix(-0.707466 -0.706748 0.708648 -0.705563 19.1074 31.9648)" fill="#EF7528"/>
<path d="M20.5364 17.5935L9.72898 24.7117L12.2341 20.9833L12.5324 20.2245L12.5726 19.4523L12.3111 18.5097C12.1804 18.0383 11.5415 17.3859 11.3458 17.1692C11.15 16.9526 6.16938 14.1999 3.70354 12.8506L20.5364 17.5935Z" fill="url(#paint4_linear_238_1892)"/>
<ellipse cx="2.30683" cy="2.31002" rx="2.30683" ry="2.31002" transform="matrix(0.493991 -0.869467 0.870605 0.491983 6.26758 20.2617)" fill="#EF7528"/>
<path d="M43.1152 25.028C42.3265 25.028 41.7242 24.911 41.3082 24.677C40.9009 24.443 40.6972 24.1093 40.6972 23.676C40.6972 23.3467 40.8272 23.0737 41.0872 22.857C41.3472 22.6403 41.6679 22.532 42.0492 22.532C42.3439 22.532 42.6299 22.6317 42.9072 22.831C43.1932 23.0303 43.4272 23.2947 43.6092 23.624C43.9992 23.624 44.3589 23.5417 44.6882 23.377C45.0175 23.2123 45.2775 22.987 45.4682 22.701C45.6675 22.4063 45.7672 22.09 45.7672 21.752C45.7672 21.466 45.6935 21.1887 45.5462 20.92C45.3989 20.6513 45.1562 20.4303 44.8182 20.257C44.4802 20.0837 44.0469 19.997 43.5182 19.997C43.2929 19.997 43.0069 20.0273 42.6602 20.088C42.5129 20.114 42.4089 20.127 42.3482 20.127C42.2529 20.127 42.1749 20.101 42.1142 20.049C42.0535 19.997 42.0275 19.9233 42.0362 19.828L42.7382 15.59L44.5842 16.292L44.1812 18.723C44.9525 18.723 45.6285 18.8443 46.2092 19.087C46.7899 19.321 47.2362 19.6547 47.5482 20.088C47.8689 20.5213 48.0292 21.024 48.0292 21.596C48.0292 22.246 47.8125 22.831 47.3792 23.351C46.9545 23.871 46.3652 24.2783 45.6112 24.573C44.8659 24.8763 44.0339 25.028 43.1152 25.028ZM45.1952 16.526C44.2159 16.526 43.4705 16.3917 42.9592 16.123C42.4479 15.8543 42.1922 15.473 42.1922 14.979C42.1922 14.6323 42.2919 14.3637 42.4912 14.173C42.6905 13.9737 42.9765 13.874 43.3492 13.874C43.6352 13.874 43.8995 13.965 44.1422 14.147C44.3849 14.3203 44.5799 14.563 44.7272 14.875C45.1432 14.849 45.6805 14.732 46.3392 14.524C47.0065 14.316 47.6219 14.0777 48.1852 13.809C48.2372 13.965 48.2762 14.1297 48.3022 14.303C48.3369 14.4763 48.3542 14.641 48.3542 14.797C48.3542 15.213 48.2415 15.5467 48.0162 15.798C47.7909 16.0493 47.4485 16.2357 46.9892 16.357C46.5299 16.4697 45.9319 16.526 45.1952 16.526ZM52.7228 23.325C51.5701 23.325 50.6905 23.1733 50.0838 22.87C49.4858 22.558 49.1868 22.1333 49.1868 21.596C49.1868 21.3793 49.2388 21.1627 49.3428 20.946C49.4555 20.7293 49.6071 20.5473 49.7978 20.4C50.1185 20.92 50.5128 21.323 50.9808 21.609C51.4575 21.8863 51.9991 22.025 52.6058 22.025C53.2125 22.025 53.7021 21.9253 54.0748 21.726C54.4561 21.5267 54.6468 21.232 54.6468 20.842C54.6468 20.6427 54.5688 20.4693 54.4128 20.322C54.2568 20.1747 54.0575 20.049 53.8148 19.945C53.5808 19.841 53.2515 19.711 52.8268 19.555C52.1855 19.3297 51.6568 19.113 51.2408 18.905C50.8335 18.697 50.4781 18.4067 50.1748 18.034C49.8801 17.6613 49.7328 17.1977 49.7328 16.643C49.7328 16.0017 49.9408 15.4513 50.3568 14.992C50.7728 14.524 51.3405 14.1687 52.0598 13.926C52.7878 13.6833 53.6068 13.562 54.5168 13.562C55.1408 13.562 55.6868 13.627 56.1548 13.757C56.6315 13.887 56.9955 14.069 57.2468 14.303C57.5068 14.537 57.6368 14.8013 57.6368 15.096C57.6368 15.512 57.4981 15.837 57.2208 16.071C56.9435 16.2963 56.5881 16.409 56.1548 16.409C55.7388 16.409 55.3705 16.292 55.0498 16.058C54.7378 15.8153 54.4951 15.4643 54.3218 15.005C53.6631 15.0743 53.1301 15.2347 52.7228 15.486C52.3155 15.7287 52.1118 16.0233 52.1118 16.37C52.1118 16.5693 52.1898 16.7427 52.3458 16.89C52.5105 17.0373 52.7098 17.163 52.9438 17.267C53.1865 17.3623 53.5245 17.4837 53.9578 17.631C54.5991 17.8477 55.1235 18.0557 55.5308 18.255C55.9381 18.4543 56.2891 18.7317 56.5838 19.087C56.8785 19.4423 57.0258 19.893 57.0258 20.439C57.0258 21.0283 56.8308 21.5397 56.4408 21.973C56.0508 22.4063 55.5265 22.74 54.8678 22.974C54.2178 23.208 53.5028 23.325 52.7228 23.325ZM60.739 23.325C60.349 23.325 60.0414 23.221 59.816 23.013C59.5907 22.8137 59.478 22.4367 59.478 21.882C59.478 21.466 59.5344 20.9807 59.647 20.426C59.7597 19.8713 59.9157 19.204 60.115 18.424C60.2624 17.8173 60.375 17.3363 60.453 16.981C60.531 16.617 60.57 16.318 60.57 16.084C60.57 15.6853 60.505 15.2693 60.375 14.836L60.323 14.706C60.583 14.472 60.882 14.2857 61.22 14.147C61.558 13.9997 61.9004 13.926 62.247 13.926C62.559 13.926 62.7844 13.9953 62.923 14.134C63.0617 14.2727 63.131 14.5023 63.131 14.823C63.131 14.9877 63.092 15.2217 63.014 15.525C62.936 15.8283 62.832 16.1967 62.702 16.63C62.4074 17.6007 62.1734 18.4717 62 19.243C61.8354 20.0143 61.7444 20.8073 61.727 21.622L62.338 22.636C62.104 22.8613 61.844 23.0303 61.558 23.143C61.272 23.2643 60.999 23.325 60.739 23.325ZM59.855 17.423C59.5604 17.423 59.3567 17.3797 59.244 17.293C59.1314 17.1977 59.075 17.033 59.075 16.799C59.075 16.5563 59.1444 16.292 59.283 16.006C59.6037 16.11 60.0067 16.162 60.492 16.162C60.882 16.162 61.376 16.1143 61.974 16.019C62.2167 15.9843 62.468 15.954 62.728 15.928C62.988 15.8933 63.2264 15.876 63.443 15.876C63.7377 15.876 63.9414 15.9237 64.054 16.019C64.1667 16.1143 64.223 16.279 64.223 16.513C64.223 16.747 64.1537 17.007 64.015 17.293C63.859 17.241 63.6727 17.202 63.456 17.176C63.2394 17.15 63.027 17.137 62.819 17.137C62.585 17.137 62.3424 17.15 62.091 17.176C61.8484 17.202 61.5927 17.2367 61.324 17.28C60.674 17.3753 60.1844 17.423 59.855 17.423ZM67.0054 23.325C66.5288 23.325 66.1084 23.1993 65.7444 22.948C65.3804 22.6967 65.0988 22.3413 64.8994 21.882C64.7001 21.414 64.6004 20.8767 64.6004 20.27C64.6004 19.2993 64.8171 18.4283 65.2504 17.657C65.6924 16.8857 66.2991 16.2833 67.0704 15.85C67.8504 15.4167 68.7301 15.2 69.7094 15.2C70.0908 15.2 70.4591 15.2347 70.8144 15.304C70.9184 15.5207 70.9704 15.8197 70.9704 16.201C70.1731 16.201 69.4538 16.37 68.8124 16.708C68.1798 17.0373 67.6858 17.488 67.3304 18.06C66.9751 18.6233 66.7974 19.2517 66.7974 19.945C66.7974 20.4303 66.8971 20.8073 67.0964 21.076C67.3044 21.3447 67.5904 21.479 67.9544 21.479C68.6564 21.479 69.2241 21.05 69.6574 20.192C70.0994 19.3253 70.4201 17.995 70.6194 16.201C70.8014 15.9757 71.0051 15.8067 71.2304 15.694C71.4644 15.5813 71.7158 15.525 71.9844 15.525C72.2531 15.525 72.4611 15.5987 72.6084 15.746C72.7644 15.8933 72.8424 16.1057 72.8424 16.383C72.8424 16.565 72.8121 16.812 72.7514 17.124C72.6908 17.4273 72.6084 17.7957 72.5044 18.229C72.3224 19.0003 72.1838 19.659 72.0884 20.205C71.9931 20.751 71.9454 21.284 71.9454 21.804C71.9454 22.272 72.0581 22.6013 72.2834 22.792C71.8588 23.1473 71.4038 23.325 70.9184 23.325C70.5371 23.325 70.2424 23.2123 70.0344 22.987C69.8264 22.7617 69.7224 22.441 69.7224 22.025C69.7224 21.8603 69.7441 21.661 69.7874 21.427L69.6574 21.362C69.3801 21.986 69.0074 22.4713 68.5394 22.818C68.0801 23.156 67.5688 23.325 67.0054 23.325ZM75.8464 23.325C75.413 23.325 75.0924 23.208 74.8844 22.974C74.6764 22.74 74.5724 22.389 74.5724 21.921C74.5724 21.5917 74.6677 20.8983 74.8584 19.841C75.0577 18.775 75.2787 17.7567 75.5214 16.786L74.8714 15.902C75.166 15.6853 75.4477 15.5163 75.7164 15.395C75.9937 15.2737 76.2624 15.213 76.5224 15.213C76.8344 15.213 77.064 15.2953 77.2114 15.46C77.3674 15.616 77.4454 15.8283 77.4454 16.097C77.4454 16.3657 77.4064 16.643 77.3284 16.929C77.2504 17.2063 77.1377 17.54 76.9904 17.93L77.1204 17.995C77.363 17.3537 77.6014 16.838 77.8354 16.448C78.0694 16.0493 78.3294 15.7417 78.6154 15.525C78.91 15.3083 79.2394 15.2 79.6034 15.2C79.9587 15.2 80.236 15.2953 80.4354 15.486C80.6347 15.6767 80.7344 15.941 80.7344 16.279C80.7344 16.669 80.6 16.9897 80.3314 17.241C80.0714 17.4837 79.7074 17.605 79.2394 17.605C78.8147 17.605 78.4117 17.8 78.0304 18.19C77.6577 18.58 77.3587 19.0957 77.1334 19.737C76.9167 20.3783 76.8084 21.0673 76.8084 21.804C76.8084 22.2633 76.8864 22.5927 77.0424 22.792C76.661 23.1473 76.2624 23.325 75.8464 23.325ZM82.781 23.338C82.3044 23.338 81.962 23.208 81.754 22.948C81.546 22.688 81.442 22.2763 81.442 21.713C81.442 21.2797 81.5027 20.634 81.624 19.776C81.754 18.9093 81.988 17.488 82.326 15.512L81.754 14.355C82.1267 14.1123 82.5037 13.9217 82.885 13.783C83.2664 13.6357 83.6304 13.562 83.977 13.562C84.5144 13.562 84.9434 13.6963 85.264 13.965C85.5847 14.225 85.8577 14.7103 86.083 15.421C86.317 16.1317 86.564 17.2973 86.824 18.918C86.8414 19.0653 86.8587 19.217 86.876 19.373C86.902 19.529 86.9237 19.6893 86.941 19.854H87.097C87.3744 18.8573 87.76 17.8867 88.254 16.942C88.748 15.9887 89.3374 15.1957 90.022 14.563C90.7154 13.9303 91.452 13.614 92.232 13.614C92.622 13.614 92.895 13.7093 93.051 13.9C93.2157 14.0907 93.298 14.3637 93.298 14.719C93.298 14.8577 93.2547 15.187 93.168 15.707C93.0814 16.227 92.9817 16.7773 92.869 17.358C92.7044 18.32 92.5614 19.152 92.44 19.854C92.3274 20.556 92.271 21.0327 92.271 21.284C92.271 21.9687 92.3924 22.493 92.635 22.857C92.1757 23.1863 91.7164 23.351 91.257 23.351C90.789 23.351 90.451 23.221 90.243 22.961C90.0437 22.701 89.944 22.2893 89.944 21.726C89.944 21.2753 90.0047 20.6297 90.126 19.789C90.2474 18.9397 90.4554 17.6873 90.75 16.032H90.646C90.178 16.5347 89.7577 17.1457 89.385 17.865C89.021 18.5843 88.722 19.308 88.488 20.036C88.2627 20.7553 88.1197 21.388 88.059 21.934C87.8684 22.1073 87.656 22.2417 87.422 22.337C87.188 22.4237 86.9627 22.467 86.746 22.467C86.3994 22.467 86.122 22.324 85.914 22.038C85.7147 21.752 85.5284 21.2147 85.355 20.426C85.1904 19.6287 84.991 18.3417 84.757 16.565C84.7484 16.4783 84.7397 16.3917 84.731 16.305C84.7224 16.2097 84.7137 16.1187 84.705 16.032H84.601C84.5664 16.1967 84.5317 16.3657 84.497 16.539C84.4624 16.7123 84.4277 16.8857 84.393 17.059C84.211 18.125 84.0637 19.022 83.951 19.75C83.8384 20.4693 83.782 20.9763 83.782 21.271C83.782 21.973 83.9034 22.4973 84.146 22.844C83.704 23.1733 83.249 23.338 82.781 23.338ZM96.863 23.325C96.161 23.325 95.641 23.1517 95.303 22.805C94.965 22.4583 94.796 21.9297 94.796 21.219C94.796 20.881 94.822 20.53 94.874 20.166C94.926 19.802 95.0083 19.347 95.121 18.801C95.199 18.4023 95.264 18.0383 95.316 17.709C95.368 17.371 95.394 17.0807 95.394 16.838C95.394 16.6127 95.3723 16.4047 95.329 16.214C95.2943 16.0147 95.2423 15.85 95.173 15.72C95.459 15.5727 95.758 15.4513 96.07 15.356C96.382 15.252 96.6333 15.2 96.824 15.2C97.136 15.2 97.3613 15.2693 97.5 15.408C97.6473 15.5467 97.721 15.7763 97.721 16.097C97.721 16.305 97.682 16.6257 97.604 17.059C97.526 17.4923 97.4307 17.9777 97.318 18.515C97.2227 18.9743 97.1317 19.425 97.045 19.867C96.967 20.3003 96.928 20.6123 96.928 20.803C96.928 21.2017 97.0103 21.5007 97.175 21.7C97.3397 21.8907 97.591 21.986 97.929 21.986C98.3537 21.986 98.761 21.83 99.151 21.518C99.541 21.1973 99.8487 20.777 100.074 20.257L100.165 22.298L99.554 21.986C99.2247 22.3933 98.8217 22.7183 98.345 22.961C97.877 23.2037 97.383 23.325 96.863 23.325ZM100.945 23.325C100.512 23.325 100.191 23.208 99.983 22.974C99.775 22.7313 99.671 22.3587 99.671 21.856C99.671 21.5527 99.7447 21.0023 99.892 20.205C100.039 19.4077 100.273 18.333 100.594 16.981L99.944 16.006C100.377 15.7287 100.767 15.525 101.114 15.395C101.461 15.265 101.781 15.2 102.076 15.2C102.388 15.2 102.609 15.2693 102.739 15.408C102.878 15.538 102.947 15.759 102.947 16.071C102.947 16.1577 102.917 16.3353 102.856 16.604C102.804 16.864 102.739 17.1543 102.661 17.475C102.436 18.4457 102.254 19.282 102.115 19.984C101.976 20.686 101.907 21.2927 101.907 21.804C101.907 22.2807 102.02 22.6143 102.245 22.805C101.838 23.1517 101.404 23.325 100.945 23.325ZM105.896 23.325C105.454 23.325 105.129 23.2123 104.921 22.987C104.722 22.7617 104.622 22.428 104.622 21.986C104.622 21.6047 104.722 20.868 104.921 19.776C105.129 18.684 105.341 17.6873 105.558 16.786L104.921 15.902C105.25 15.694 105.593 15.5293 105.948 15.408C106.303 15.278 106.646 15.213 106.975 15.213C107.296 15.213 107.53 15.2867 107.677 15.434C107.824 15.5813 107.898 15.8023 107.898 16.097C107.898 16.3137 107.863 16.552 107.794 16.812C107.733 17.072 107.655 17.306 107.56 17.514L107.69 17.579C108.167 16.7383 108.674 16.1317 109.211 15.759C109.757 15.3863 110.359 15.2 111.018 15.2C111.521 15.2 111.906 15.33 112.175 15.59C112.444 15.85 112.578 16.227 112.578 16.721C112.578 16.9637 112.539 17.228 112.461 17.514L112.591 17.579C113.076 16.7383 113.592 16.1317 114.138 15.759C114.684 15.3863 115.291 15.2 115.958 15.2C116.495 15.2 116.898 15.3343 117.167 15.603C117.436 15.863 117.57 16.2747 117.57 16.838C117.57 17.15 117.535 17.4793 117.466 17.826C117.405 18.164 117.31 18.606 117.18 19.152C117.033 19.7587 116.92 20.257 116.842 20.647C116.773 21.037 116.738 21.4227 116.738 21.804C116.738 22.2633 116.816 22.5927 116.972 22.792C116.591 23.1473 116.196 23.325 115.789 23.325C115.338 23.325 115.009 23.2167 114.801 23C114.602 22.792 114.502 22.4757 114.502 22.051C114.502 21.6783 114.541 21.297 114.619 20.907C114.697 20.5083 114.81 20.0273 114.957 19.464C115.078 19.0047 115.165 18.6407 115.217 18.372C115.278 18.1033 115.308 17.8607 115.308 17.644C115.308 17.3927 115.26 17.202 115.165 17.072C115.078 16.942 114.931 16.877 114.723 16.877C114.333 16.877 113.904 17.0937 113.436 17.527C112.977 17.9603 112.587 18.554 112.266 19.308C111.954 20.062 111.798 20.894 111.798 21.804C111.798 22.2633 111.876 22.5927 112.032 22.792C111.651 23.1473 111.252 23.325 110.836 23.325C110.394 23.325 110.069 23.2167 109.861 23C109.662 22.792 109.562 22.4757 109.562 22.051C109.562 21.6783 109.601 21.297 109.679 20.907C109.766 20.5083 109.883 20.0273 110.03 19.464C110.143 19.0047 110.225 18.6407 110.277 18.372C110.338 18.1033 110.368 17.8607 110.368 17.644C110.368 17.1327 110.173 16.877 109.783 16.877C109.393 16.877 108.964 17.0937 108.496 17.527C108.037 17.9603 107.647 18.554 107.326 19.308C107.014 20.062 106.858 20.894 106.858 21.804C106.858 22.2633 106.936 22.5927 107.092 22.792C106.711 23.1473 106.312 23.325 105.896 23.325ZM121.886 23.325C120.855 23.325 120.088 23.1907 119.585 22.922C119.082 22.6533 118.831 22.2893 118.831 21.83C118.831 21.622 118.887 21.414 119 21.206C119.121 20.998 119.29 20.8203 119.507 20.673C119.732 21.0977 120.036 21.427 120.417 21.661C120.798 21.895 121.245 22.012 121.756 22.012C122.172 22.012 122.545 21.9253 122.874 21.752C123.212 21.5787 123.381 21.3317 123.381 21.011C123.381 20.8117 123.264 20.6513 123.03 20.53C122.805 20.4087 122.436 20.2613 121.925 20.088C121.379 19.9233 120.928 19.7587 120.573 19.594C120.218 19.4293 119.91 19.204 119.65 18.918C119.39 18.6233 119.26 18.2507 119.26 17.8C119.26 17.2367 119.438 16.76 119.793 16.37C120.157 15.98 120.642 15.6897 121.249 15.499C121.864 15.2997 122.553 15.2 123.316 15.2C124.139 15.2 124.798 15.3257 125.292 15.577C125.795 15.8283 126.046 16.1577 126.046 16.565C126.046 16.929 125.92 17.215 125.669 17.423C125.418 17.6223 125.106 17.722 124.733 17.722C124.386 17.722 124.07 17.6137 123.784 17.397C123.507 17.1717 123.29 16.851 123.134 16.435C122.631 16.487 122.22 16.6127 121.899 16.812C121.587 17.0113 121.431 17.254 121.431 17.54C121.431 17.696 121.496 17.8303 121.626 17.943C121.756 18.0557 121.916 18.151 122.107 18.229C122.298 18.2983 122.575 18.3937 122.939 18.515C123.485 18.6883 123.931 18.8573 124.278 19.022C124.625 19.178 124.924 19.4033 125.175 19.698C125.426 19.9927 125.552 20.3697 125.552 20.829C125.552 21.3663 125.374 21.8257 125.019 22.207C124.672 22.5797 124.217 22.857 123.654 23.039C123.091 23.2297 122.501 23.325 121.886 23.325Z" fill="#EF7528"/>
<defs>
<linearGradient id="paint0_linear_238_1892" x1="16.8755" y1="10.1629" x2="21.9391" y2="20.202" gradientUnits="userSpaceOnUse">
<stop stop-color="#EF7528"/>
<stop offset="0.295946" stop-color="#F19D20"/>
</linearGradient>
<linearGradient id="paint1_linear_238_1892" x1="26.5453" y1="12.485" x2="17.9754" y2="19.7814" gradientUnits="userSpaceOnUse">
<stop stop-color="#EF7528"/>
<stop offset="0.295946" stop-color="#F19D20"/>
</linearGradient>
<linearGradient id="paint2_linear_238_1892" x1="27.5052" y1="20.9019" x2="17.317" y2="16.1016" gradientUnits="userSpaceOnUse">
<stop stop-color="#EF7528"/>
<stop offset="0.295946" stop-color="#F19D20"/>
</linearGradient>
<linearGradient id="paint3_linear_238_1892" x1="17.8866" y1="25.0363" x2="21.3927" y2="14.3564" gradientUnits="userSpaceOnUse">
<stop stop-color="#EF7528"/>
<stop offset="0.295946" stop-color="#F19D20"/>
</linearGradient>
<linearGradient id="paint4_linear_238_1892" x1="12.6362" y1="17.2361" x2="23.8914" y2="17.7701" gradientUnits="userSpaceOnUse">
<stop stop-color="#EF7528"/>
<stop offset="0.295946" stop-color="#F19D20"/>
</linearGradient>
</defs>
</svg>
