<svg width="400" height="250" viewBox="0 0 400 250" fill="none" xmlns="http://www.w3.org/2000/svg">
<rect width="400" height="250" fill="#EF7528"/>
<g clip-path="url(#clip0_216_1759)">
<rect x="39" y="40" width="321" height="210" rx="10.7598" fill="url(#paint0_linear_216_1759)"/>
<rect width="38.3943" height="11.0628" transform="translate(299.175 114.188)" fill="white" fill-opacity="0.4"/>
<rect width="29.3295" height="15.947" transform="translate(98.6104 146.303)" fill="white" fill-opacity="0.4"/>
<rect width="29.3295" height="15.947" transform="translate(133.442 146.303)" fill="white" fill-opacity="0.4"/>
<rect width="29.3295" height="15.947" transform="translate(168.276 146.303)" fill="white" fill-opacity="0.4"/>
<rect width="29.3295" height="15.947" transform="translate(203.108 146.303)" fill="white" fill-opacity="0.4"/>
<rect width="29.3295" height="15.947" transform="translate(237.943 146.303)" fill="white" fill-opacity="0.4"/>
<rect width="29.3295" height="15.947" transform="translate(272.777 146.303)" fill="white" fill-opacity="0.4"/>
<rect width="29.3295" height="15.947" transform="translate(307.611 146.303)" fill="white" fill-opacity="0.4"/>
<rect x="242.834" y="171.292" width="21.9971" height="16.6557" rx="8.32786" fill="white" fill-opacity="0.4"/>
<rect x="278.891" y="171.292" width="21.9971" height="16.6557" rx="8.32786" fill="white" fill-opacity="0.4"/>
<rect width="21.9971" height="16.6557" transform="translate(314.946 171.292)" fill="white" fill-opacity="0.4"/>
<rect width="21.9971" height="16.6557" transform="translate(98.6104 199.053)" fill="white" fill-opacity="0.4"/>
<rect width="21.9971" height="16.6557" transform="translate(206.875 199.053)" fill="white" fill-opacity="0.4"/>
<rect width="21.9971" height="16.6557" transform="translate(170.722 199.053)" fill="white" fill-opacity="0.4"/>
<rect width="21.9971" height="16.6557" transform="translate(134.666 199.053)" fill="white" fill-opacity="0.4"/>
<rect width="21.9971" height="16.6557" transform="translate(242.834 199.053)" fill="#437C90"/>
<path d="M249.845 204.825V204.018H251.675V211.053H250.78V204.825H249.845ZM253.089 210.342C253.913 209.681 254.558 209.139 255.025 208.717C255.492 208.289 255.885 207.845 256.202 207.384C256.527 206.917 256.689 206.46 256.689 206.012C256.689 205.591 256.585 205.26 256.378 205.02C256.177 204.773 255.849 204.65 255.395 204.65C254.954 204.65 254.61 204.79 254.363 205.069C254.123 205.341 253.994 205.708 253.974 206.168H253.118C253.144 205.442 253.364 204.88 253.78 204.485C254.195 204.089 254.73 203.891 255.385 203.891C256.053 203.891 256.582 204.076 256.971 204.446C257.367 204.816 257.565 205.325 257.565 205.973C257.565 206.512 257.403 207.037 257.078 207.55C256.76 208.056 256.397 208.503 255.988 208.893C255.58 209.275 255.058 209.723 254.422 210.235H257.769V210.975H253.089V210.342Z" fill="white"/>
<rect width="21.9971" height="16.6557" transform="translate(278.891 199.053)" fill="white" fill-opacity="0.4"/>
<rect width="21.9971" height="16.6557" transform="translate(314.944 199.053)" fill="white" fill-opacity="0.4"/>
<rect width="21.9971" height="16.6557" transform="translate(98.6104 226.816)" fill="white" fill-opacity="0.4"/>
<rect width="21.9971" height="16.6557" transform="translate(134.666 226.816)" fill="white" fill-opacity="0.4"/>
<rect width="21.9971" height="16.6557" transform="translate(170.722 226.816)" fill="white" fill-opacity="0.4"/>
<rect x="206.18" y="225.467" width="19.9516" height="19.5225" rx="9.76127" fill="white" fill-opacity="0.4"/>
<rect width="21.9971" height="16.6557" transform="translate(242.834 226.816)" fill="white" fill-opacity="0.4"/>
<rect width="21.9971" height="16.6557" transform="translate(278.891 226.816)" fill="white" fill-opacity="0.4"/>
<rect x="314.837" y="225.637" width="22.2396" height="17.7917" rx="8.89583" fill="white" fill-opacity="0.4"/>
<rect width="242.08" height="17.5441" transform="translate(95.4883 80.3486)" fill="white" fill-opacity="0.4"/>
<path fill-rule="evenodd" clip-rule="evenodd" d="M276.306 165.531C272.345 165.531 269.133 168.743 269.133 172.704V182.327L262.265 194.224H276.301C276.303 194.224 276.305 194.224 276.306 194.224L277.795 194.224L343.555 194.224C347.517 194.224 350.728 191.012 350.728 187.051V172.704C350.728 168.743 347.517 165.531 343.555 165.531H276.306Z" fill="#437C90"/>
<rect width="64.9665" height="12" transform="translate(279.302 172.704)" fill="#437C90"/>
<path d="M279.302 178.704H286.475" stroke="white" stroke-width="1.34497" stroke-linecap="round" stroke-linejoin="round"/>
<path d="M282.889 182.29V175.117" stroke="white" stroke-width="1.34497" stroke-linecap="round" stroke-linejoin="round"/>
<path d="M289.857 175.727C290.521 175.043 291.362 174.701 292.381 174.701C293.177 174.701 293.864 174.915 294.443 175.342C295.028 175.77 295.409 176.362 295.587 177.118C295.594 177.144 295.597 177.17 295.597 177.197C295.597 177.282 295.538 177.325 295.419 177.325H294.867C294.762 177.325 294.693 177.269 294.66 177.157C294.528 176.657 294.259 176.266 293.851 175.983C293.45 175.694 292.96 175.55 292.381 175.55C291.612 175.55 290.984 175.803 290.498 176.309C290.018 176.809 289.778 177.456 289.778 178.252C289.778 179.048 290.018 179.699 290.498 180.205C290.984 180.705 291.612 180.955 292.381 180.955C292.96 180.955 293.45 180.813 293.851 180.53C294.259 180.241 294.528 179.847 294.66 179.347C294.693 179.235 294.762 179.179 294.867 179.179H295.419C295.538 179.179 295.597 179.225 295.597 179.317C295.597 179.337 295.594 179.363 295.587 179.396C295.409 180.146 295.028 180.734 294.443 181.162C293.864 181.589 293.177 181.803 292.381 181.803C291.362 181.803 290.517 181.461 289.847 180.777C289.183 180.093 288.85 179.251 288.85 178.252C288.85 177.253 289.186 176.411 289.857 175.727ZM297.182 177.108H297.625C297.757 177.108 297.823 177.174 297.823 177.305V178.025H297.832C298.102 177.361 298.599 177.029 299.322 177.029C299.388 177.029 299.48 177.036 299.598 177.049C299.71 177.075 299.766 177.151 299.766 177.276V177.66C299.766 177.772 299.713 177.828 299.608 177.828C299.595 177.828 299.578 177.828 299.559 177.828C299.512 177.821 299.43 177.818 299.312 177.818C298.845 177.818 298.48 177.973 298.217 178.282C297.961 178.591 297.832 179.064 297.832 179.702V181.507C297.832 181.638 297.767 181.704 297.635 181.704H297.182C297.05 181.704 296.984 181.638 296.984 181.507V177.305C296.984 177.174 297.05 177.108 297.182 177.108ZM300.31 179.406C300.31 178.702 300.527 178.127 300.961 177.68C301.402 177.233 301.974 177.009 302.677 177.009C303.368 177.009 303.923 177.226 304.344 177.66C304.772 178.094 304.985 178.666 304.985 179.376V179.465C304.985 179.616 304.91 179.692 304.758 179.692H301.158C301.204 180.146 301.362 180.491 301.632 180.728C301.908 180.964 302.27 181.083 302.717 181.083C303.032 181.083 303.302 181.027 303.526 180.915C303.756 180.803 303.92 180.655 304.019 180.471C304.065 180.366 304.14 180.313 304.246 180.313H304.67C304.742 180.313 304.791 180.327 304.818 180.353C304.851 180.379 304.867 180.412 304.867 180.451C304.867 180.458 304.867 180.465 304.867 180.471C304.735 180.866 304.479 181.188 304.098 181.438C303.716 181.681 303.253 181.803 302.707 181.803C301.984 181.803 301.402 181.582 300.961 181.142C300.527 180.701 300.31 180.123 300.31 179.406ZM301.178 179.031H304.117C304.058 178.604 303.904 178.278 303.654 178.055C303.404 177.831 303.075 177.719 302.667 177.719C302.247 177.719 301.908 177.831 301.652 178.055C301.395 178.278 301.237 178.604 301.178 179.031ZM306.616 177.7C307.056 177.239 307.599 177.009 308.243 177.009C308.598 177.009 308.924 177.085 309.219 177.236C309.515 177.387 309.732 177.591 309.87 177.848H309.89V177.305C309.89 177.174 309.956 177.108 310.087 177.108H310.531C310.663 177.108 310.729 177.174 310.729 177.305V181.507C310.729 181.638 310.663 181.704 310.531 181.704H310.087C309.956 181.704 309.89 181.638 309.89 181.507V180.964H309.87C309.739 181.227 309.525 181.435 309.229 181.586C308.933 181.73 308.605 181.803 308.243 181.803C307.599 181.803 307.053 181.573 306.606 181.112C306.165 180.652 305.945 180.083 305.945 179.406C305.945 178.729 306.168 178.16 306.616 177.7ZM307.247 180.58C307.53 180.889 307.901 181.043 308.361 181.043C308.822 181.043 309.193 180.889 309.476 180.58C309.759 180.271 309.9 179.879 309.9 179.406C309.9 178.939 309.755 178.551 309.466 178.242C309.183 177.933 308.815 177.779 308.361 177.779C307.901 177.779 307.526 177.933 307.237 178.242C306.954 178.551 306.813 178.939 306.813 179.406C306.813 179.879 306.958 180.271 307.247 180.58ZM311.678 177.64V177.305C311.678 177.174 311.741 177.108 311.866 177.108H312.744V176.023C312.744 175.891 312.809 175.826 312.941 175.826H313.404C313.529 175.826 313.592 175.891 313.592 176.023V177.108H315.2C315.331 177.108 315.397 177.174 315.397 177.305V177.64C315.397 177.772 315.331 177.838 315.2 177.838H313.592V180.067C313.592 180.422 313.667 180.675 313.819 180.826C313.97 180.971 314.21 181.043 314.539 181.043C314.795 181.043 315.025 181.004 315.229 180.925C315.275 180.905 315.315 180.895 315.347 180.895C315.42 180.895 315.456 180.951 315.456 181.063V181.418C315.456 181.517 315.407 181.589 315.308 181.635C315.038 181.747 314.733 181.803 314.391 181.803C313.293 181.803 312.744 181.237 312.744 180.106V177.838H311.866C311.741 177.838 311.678 177.772 311.678 177.64ZM316.213 179.406C316.213 178.702 316.43 178.127 316.864 177.68C317.304 177.233 317.876 177.009 318.58 177.009C319.27 177.009 319.826 177.226 320.247 177.66C320.674 178.094 320.888 178.666 320.888 179.376V179.465C320.888 179.616 320.812 179.692 320.661 179.692H317.061C317.107 180.146 317.265 180.491 317.534 180.728C317.81 180.964 318.172 181.083 318.619 181.083C318.935 181.083 319.204 181.027 319.428 180.915C319.658 180.803 319.822 180.655 319.921 180.471C319.967 180.366 320.043 180.313 320.148 180.313H320.572C320.644 180.313 320.694 180.327 320.72 180.353C320.753 180.379 320.769 180.412 320.769 180.451C320.769 180.458 320.769 180.465 320.769 180.471C320.638 180.866 320.381 181.188 320 181.438C319.619 181.681 319.155 181.803 318.609 181.803C317.886 181.803 317.304 181.582 316.864 181.142C316.43 180.701 316.213 180.123 316.213 179.406ZM317.081 179.031H320.02C319.961 178.604 319.806 178.278 319.556 178.055C319.306 177.831 318.978 177.719 318.57 177.719C318.149 177.719 317.81 177.831 317.554 178.055C317.298 178.278 317.14 178.604 317.081 179.031ZM323.815 177.64V177.305C323.815 177.174 323.877 177.108 324.002 177.108H324.88V176.023C324.88 175.891 324.946 175.826 325.077 175.826H325.541C325.666 175.826 325.728 175.891 325.728 176.023V177.108H327.336C327.467 177.108 327.533 177.174 327.533 177.305V177.64C327.533 177.772 327.467 177.838 327.336 177.838H325.728V180.067C325.728 180.422 325.804 180.675 325.955 180.826C326.106 180.971 326.346 181.043 326.675 181.043C326.931 181.043 327.162 181.004 327.365 180.925C327.411 180.905 327.451 180.895 327.484 180.895C327.556 180.895 327.592 180.951 327.592 181.063V181.418C327.592 181.517 327.543 181.589 327.444 181.635C327.175 181.747 326.869 181.803 326.527 181.803C325.429 181.803 324.88 181.237 324.88 180.106V177.838H324.002C323.877 177.838 323.815 177.772 323.815 177.64ZM329.02 177.7C329.46 177.239 330.003 177.009 330.647 177.009C331.002 177.009 331.328 177.085 331.623 177.236C331.919 177.387 332.136 177.591 332.274 177.848H332.294V177.305C332.294 177.174 332.36 177.108 332.491 177.108H332.935C333.067 177.108 333.132 177.174 333.132 177.305V181.507C333.132 181.638 333.067 181.704 332.935 181.704H332.491C332.36 181.704 332.294 181.638 332.294 181.507V180.964H332.274C332.143 181.227 331.929 181.435 331.633 181.586C331.337 181.73 331.009 181.803 330.647 181.803C330.003 181.803 329.457 181.573 329.01 181.112C328.569 180.652 328.349 180.083 328.349 179.406C328.349 178.729 328.572 178.16 329.02 177.7ZM329.651 180.58C329.934 180.889 330.305 181.043 330.765 181.043C331.226 181.043 331.597 180.889 331.88 180.58C332.163 180.271 332.304 179.879 332.304 179.406C332.304 178.939 332.159 178.551 331.87 178.242C331.587 177.933 331.219 177.779 330.765 177.779C330.305 177.779 329.93 177.933 329.641 178.242C329.358 178.551 329.217 178.939 329.217 179.406C329.217 179.879 329.361 180.271 329.651 180.58ZM334.418 180.451C334.451 180.419 334.5 180.402 334.566 180.402H335.039C335.144 180.402 335.217 180.458 335.256 180.57C335.315 180.741 335.443 180.876 335.641 180.974C335.845 181.073 336.094 181.122 336.39 181.122C336.739 181.122 337.005 181.063 337.189 180.945C337.38 180.82 337.475 180.649 337.475 180.432C337.475 180.254 337.409 180.116 337.278 180.018C337.153 179.919 336.929 179.847 336.607 179.801L335.749 179.662C334.842 179.524 334.388 179.097 334.388 178.38C334.388 177.966 334.549 177.634 334.871 177.384C335.2 177.134 335.674 177.009 336.292 177.009C336.857 177.009 337.304 177.121 337.633 177.345C337.962 177.562 338.162 177.884 338.235 178.311C338.235 178.324 338.235 178.341 338.235 178.361C338.235 178.459 338.172 178.508 338.047 178.508H337.594C337.488 178.508 337.419 178.449 337.386 178.331C337.288 177.917 336.92 177.71 336.282 177.71C335.572 177.71 335.217 177.933 335.217 178.38C335.217 178.538 335.276 178.663 335.394 178.755C335.519 178.841 335.743 178.91 336.065 178.962L336.933 179.09C337.847 179.235 338.304 179.672 338.304 180.402C338.304 180.843 338.133 181.188 337.791 181.438C337.456 181.681 336.979 181.803 336.361 181.803C335.203 181.803 334.546 181.405 334.388 180.609C334.382 180.59 334.378 180.573 334.378 180.56C334.378 180.514 334.391 180.478 334.418 180.451ZM339.548 181.507V174.997C339.548 174.866 339.614 174.8 339.745 174.8H340.199C340.33 174.8 340.396 174.866 340.396 174.997V178.992H340.968C341.054 178.992 341.182 178.998 341.353 179.011L342.734 177.226C342.793 177.147 342.872 177.108 342.97 177.108H343.562C343.648 177.108 343.697 177.124 343.71 177.157C343.73 177.184 343.74 177.207 343.74 177.226C343.74 177.259 343.72 177.299 343.681 177.345L342.231 179.219C343.118 179.574 343.661 180.33 343.858 181.487C343.858 181.5 343.858 181.513 343.858 181.527C343.858 181.645 343.796 181.704 343.671 181.704H343.187C343.069 181.704 343 181.642 342.98 181.517C342.862 180.885 342.635 180.435 342.3 180.165C341.971 179.896 341.501 179.761 340.889 179.761H340.396V181.507C340.396 181.638 340.33 181.704 340.199 181.704H339.745C339.614 181.704 339.548 181.638 339.548 181.507Z" fill="white"/>
<path d="M54.3909 143.941C54.3509 143.823 54.36 143.706 54.4131 143.607C54.4484 143.541 54.4995 143.49 54.5563 143.453C54.5632 143.436 54.5711 143.421 54.58 143.405C54.6403 143.3 54.7399 143.223 54.8569 143.191L54.8596 143.19L54.8596 143.19L59.0938 142.111L58.8202 141.273C58.7747 141.138 58.7942 141.007 58.8636 140.903C58.9295 140.804 59.0315 140.743 59.1336 140.715C59.236 140.687 59.3544 140.689 59.4615 140.737C59.5723 140.788 59.6604 140.883 59.6986 141.019L59.9813 141.884L69.6383 139.422C69.5001 138.938 69.3577 138.455 69.2113 137.972C69.17 137.837 69.1919 137.708 69.2611 137.605C69.3271 137.508 69.428 137.446 69.5301 137.418C69.6324 137.39 69.7503 137.393 69.8568 137.442C69.9673 137.493 70.0541 137.59 70.0916 137.725C70.2402 138.214 70.3847 138.705 70.5249 139.196L74.7456 138.12C74.7479 138.116 74.7503 138.113 74.7527 138.11C74.788 138.061 74.8326 138.02 74.8838 137.989C74.935 137.957 74.9919 137.937 75.0512 137.927C75.1105 137.918 75.1711 137.92 75.2295 137.934C75.2879 137.948 75.3429 137.974 75.3915 138.009C75.44 138.044 75.4811 138.089 75.5125 138.14L75.5134 138.142C76.3253 139.499 76.9527 140.958 77.3791 142.48L77.3795 142.482C77.393 142.531 77.3979 142.582 77.3944 142.633C77.4105 142.735 77.3914 142.841 77.3395 142.931C77.2792 143.036 77.1796 143.113 77.0625 143.145L77.0611 143.146L71.869 144.51C71.9055 144.675 71.9416 144.841 71.9772 145.006C72.0086 145.141 71.9822 145.266 71.914 145.365C71.8479 145.461 71.749 145.523 71.647 145.55C71.545 145.578 71.428 145.575 71.3227 145.524C71.213 145.471 71.1292 145.373 71.0928 145.239L71.0903 145.229L71.0905 145.229C71.0556 145.067 71.0202 144.905 70.9844 144.743L61.7102 147.18L56.1808 148.448L56.2277 148.62C56.2274 148.621 56.2272 148.621 56.2269 148.621C56.1101 148.652 55.9856 148.636 55.8806 148.576C55.8059 148.533 55.7455 148.471 55.7053 148.396M54.3909 143.941C54.3909 143.941 54.3909 143.941 54.3908 143.941L54.5606 143.884L54.391 143.941C54.391 143.941 54.391 143.941 54.3909 143.941ZM54.3909 143.941C54.8692 145.363 55.2936 146.799 55.6429 148.254L55.6428 148.254L55.6442 148.259C55.6578 148.309 55.6782 148.355 55.7053 148.396M55.7053 148.396C55.7078 148.4 55.7102 148.403 55.7128 148.407L55.8593 148.304M55.7053 148.396C55.7032 148.392 55.7012 148.388 55.6993 148.384L55.8593 148.304M55.8593 148.304C55.8413 148.278 55.8268 148.248 55.8171 148.212L55.8593 148.304ZM61.0131 147.988C61.0136 147.99 61.014 147.991 61.0145 147.993L61.0157 147.997L61.186 147.941L61.0131 147.988ZM60.7724 147.252L60.8249 147.412L60.9882 147.369L60.9427 147.196L60.7724 147.252ZM79.8324 157.094L79.8324 157.094L79.8367 157.092C80.039 157.037 80.1469 156.88 80.1635 156.713C80.1768 156.579 80.1315 156.436 80.0353 156.334C79.0374 152.643 78.1646 148.919 77.4528 145.174L77.4534 145.174L77.4497 145.16C77.4046 144.994 77.2922 144.883 77.1501 144.842C77.0265 144.807 76.8957 144.829 76.7901 144.89C70.2513 146.796 63.6899 148.605 57.106 150.317L57.106 150.317L57.1041 150.317C56.9871 150.349 56.8874 150.426 56.8272 150.531C56.7738 150.624 56.7551 150.733 56.7736 150.838C56.7035 150.938 56.6753 151.069 56.7242 151.215C57.8107 154.65 58.7533 158.12 59.552 161.625L59.5519 161.625L59.5538 161.633C59.5856 161.75 59.6626 161.849 59.7678 161.909C59.8731 161.97 59.9979 161.986 60.115 161.954C60.1592 161.942 60.2009 161.923 60.2389 161.9L79.8324 157.094ZM61.4259 146.309L60.2658 142.756L69.8851 140.303C70.2083 141.48 70.5074 142.662 70.7825 143.85L61.4259 146.309ZM71.667 143.618C71.3924 142.432 71.0938 141.252 70.7714 140.077L74.9544 139.01C75.5564 140.076 76.0398 141.204 76.3957 142.375L71.667 143.618ZM60.5405 146.541L56.4195 147.624C56.0868 146.401 55.7497 145.178 55.3724 144.003L59.3783 142.982L60.5405 146.541ZM60.3342 160.935C59.5873 157.626 58.6937 154.354 57.6535 151.119C64.0078 149.457 70.3428 147.71 76.6587 145.88C77.3383 149.388 78.1538 152.896 79.0872 156.335L60.3342 160.935Z" fill="white" stroke="white" stroke-width="0.35823" stroke-linejoin="round"/>
<path d="M61.5389 231.768L59.0637 222.406L76.2921 217.851L78.7673 227.213L61.5389 231.768Z" fill="white" stroke="#F49F69" stroke-width="0.17933"/>
<line x1="62.4179" y1="224.484" x2="74.9709" y2="220.897" stroke="#1E1E1E" stroke-opacity="0.11" stroke-width="0.896648"/>
<line x1="63.3143" y1="227.173" x2="75.8674" y2="223.587" stroke="black" stroke-opacity="0.11" stroke-width="0.896648"/>
</g>
<rect x="39.4483" y="40.4483" width="320.103" height="209.103" rx="10.3115" stroke="white" stroke-opacity="0.8" stroke-width="0.896648"/>
<rect x="13" y="103" width="193" height="51" rx="8" fill="white"/>
<path d="M22.372 114.2H25.802C26.9127 114.2 27.762 114.429 28.35 114.886C28.9473 115.343 29.246 115.987 29.246 116.818C29.246 117.873 28.826 118.563 27.986 118.89V118.932C28.602 119.025 29.078 119.277 29.414 119.688C29.7593 120.089 29.932 120.621 29.932 121.284C29.932 122.152 29.6287 122.824 29.022 123.3C28.4247 123.767 27.552 124 26.404 124H22.372C22.204 124 22.12 123.916 22.12 123.748V114.452C22.12 114.284 22.204 114.2 22.372 114.2ZM26.236 122.432C26.8707 122.432 27.3233 122.325 27.594 122.11C27.874 121.895 28.014 121.559 28.014 121.102C28.014 120.635 27.874 120.299 27.594 120.094C27.3233 119.879 26.8707 119.772 26.236 119.772H23.982V122.432H26.236ZM23.982 115.768V118.232H25.69C26.2687 118.232 26.6887 118.129 26.95 117.924C27.2113 117.728 27.342 117.42 27.342 117C27.342 116.58 27.2113 116.272 26.95 116.076C26.6887 115.871 26.2687 115.768 25.69 115.768H23.982ZM31.4396 123.748V117.588C31.4396 117.42 31.519 117.336 31.6776 117.336H32.9096C33.0776 117.336 33.1616 117.42 33.1616 117.588V118.54H33.1896C33.367 118.111 33.633 117.784 33.9876 117.56C34.3516 117.327 34.7623 117.21 35.2196 117.21C35.3223 117.21 35.4483 117.219 35.5976 117.238C35.7376 117.275 35.8076 117.369 35.8076 117.518V118.694C35.8076 118.843 35.7376 118.918 35.5976 118.918C35.579 118.918 35.5603 118.918 35.5416 118.918C35.4576 118.909 35.3223 118.904 35.1356 118.904C33.8476 118.904 33.2036 119.683 33.2036 121.242V123.748C33.2036 123.916 33.1196 124 32.9516 124H31.6776C31.519 124 31.4396 123.916 31.4396 123.748ZM36.517 120.682C36.517 119.665 36.8437 118.825 37.497 118.162C38.1597 117.499 39.0137 117.168 40.059 117.168C41.0764 117.168 41.907 117.49 42.551 118.134C43.195 118.778 43.517 119.618 43.517 120.654V120.836C43.517 121.069 43.405 121.186 43.181 121.186H38.281C38.4304 122.241 39.0464 122.768 40.129 122.768C40.8944 122.768 41.3937 122.539 41.627 122.082C41.7017 121.951 41.7997 121.886 41.921 121.886H43.097C43.181 121.886 43.2417 121.905 43.279 121.942C43.3257 121.97 43.349 122.003 43.349 122.04C43.349 122.059 43.3444 122.077 43.335 122.096C43.1484 122.712 42.7704 123.211 42.201 123.594C41.6317 123.977 40.9317 124.168 40.101 124.168C39.0277 124.168 38.1597 123.846 37.497 123.202C36.8437 122.549 36.517 121.709 36.517 120.682ZM38.309 120.024H41.739C41.5804 119.044 41.0204 118.554 40.059 118.554C39.079 118.554 38.4957 119.044 38.309 120.024ZM45.5621 118.162C46.1781 117.499 46.9481 117.168 47.8721 117.168C48.3388 117.168 48.7588 117.261 49.1321 117.448C49.5055 117.635 49.7855 117.901 49.9721 118.246H50.0141V117.588C50.0141 117.42 50.0981 117.336 50.2661 117.336H51.4981C51.6661 117.336 51.7501 117.42 51.7501 117.588V123.748C51.7501 123.916 51.6661 124 51.4981 124H50.2661C50.0981 124 50.0141 123.916 50.0141 123.748V123.09H49.9721C49.7855 123.435 49.5055 123.701 49.1321 123.888C48.7588 124.075 48.3388 124.168 47.8721 124.168C46.9481 124.168 46.1781 123.837 45.5621 123.174C44.9461 122.502 44.6381 121.667 44.6381 120.668C44.6381 119.669 44.9461 118.834 45.5621 118.162ZM46.9481 122.026C47.2748 122.39 47.7088 122.572 48.2501 122.572C48.7915 122.572 49.2255 122.395 49.5521 122.04C49.8788 121.676 50.0421 121.219 50.0421 120.668C50.0421 120.117 49.8788 119.665 49.5521 119.31C49.2255 118.955 48.7915 118.778 48.2501 118.778C47.7088 118.778 47.2748 118.955 46.9481 119.31C46.6121 119.665 46.4441 120.117 46.4441 120.668C46.4441 121.219 46.6121 121.671 46.9481 122.026ZM53.2521 122.082C53.2987 122.035 53.3641 122.012 53.4481 122.012H54.7081C54.8294 122.012 54.9181 122.087 54.9741 122.236C55.1234 122.647 55.5434 122.852 56.2341 122.852C57.0461 122.852 57.4521 122.595 57.4521 122.082C57.4521 121.867 57.3727 121.709 57.2141 121.606C57.0554 121.494 56.7707 121.41 56.3601 121.354L55.3101 121.214C54.6101 121.121 54.0827 120.906 53.7281 120.57C53.3827 120.234 53.2101 119.8 53.2101 119.268C53.2101 118.633 53.4621 118.125 53.9661 117.742C54.4701 117.359 55.2027 117.168 56.1641 117.168C57.9281 117.168 58.9081 117.826 59.1041 119.142C59.1041 119.17 59.1041 119.193 59.1041 119.212C59.1041 119.343 59.0294 119.408 58.8801 119.408H57.6481C57.5081 119.408 57.4194 119.333 57.3821 119.184C57.2514 118.727 56.8407 118.498 56.1501 118.498C55.3474 118.498 54.9461 118.745 54.9461 119.24C54.9461 119.417 55.0254 119.557 55.1841 119.66C55.3521 119.763 55.6461 119.842 56.0661 119.898L57.1021 120.038C58.4927 120.225 59.1881 120.883 59.1881 122.012C59.1881 122.693 58.9267 123.225 58.4041 123.608C57.8907 123.981 57.1627 124.168 56.2201 124.168C55.3334 124.168 54.6334 124.005 54.1201 123.678C53.6161 123.342 53.3127 122.875 53.2101 122.278C53.2007 122.259 53.1961 122.241 53.1961 122.222C53.1961 122.166 53.2147 122.119 53.2521 122.082ZM59.9284 118.61V117.588C59.9284 117.42 60.0124 117.336 60.1804 117.336H61.3424V115.74C61.3424 115.572 61.4218 115.488 61.5804 115.488H62.8544C63.0224 115.488 63.1064 115.572 63.1064 115.74V117.336H65.2064C65.3744 117.336 65.4584 117.42 65.4584 117.588V118.61C65.4584 118.778 65.3744 118.862 65.2064 118.862H63.1064V121.326C63.1064 121.774 63.1998 122.096 63.3864 122.292C63.5824 122.479 63.8951 122.572 64.3244 122.572C64.6698 122.572 64.9731 122.516 65.2344 122.404C65.2904 122.385 65.3371 122.376 65.3744 122.376C65.4678 122.376 65.5144 122.446 65.5144 122.586V123.65C65.5144 123.771 65.4584 123.86 65.3464 123.916C64.9544 124.084 64.4924 124.168 63.9604 124.168C62.2151 124.168 61.3424 123.286 61.3424 121.522V118.862H60.1804C60.0124 118.862 59.9284 118.778 59.9284 118.61ZM66.7391 119.394H70.3651C70.5331 119.394 70.6171 119.473 70.6171 119.632V120.724C70.6171 120.892 70.5331 120.976 70.3651 120.976H66.7391C66.5711 120.976 66.4871 120.892 66.4871 120.724V119.632C66.4871 119.473 66.5711 119.394 66.7391 119.394ZM71.7755 117.336H72.9235V116.902C72.9235 114.961 73.8148 113.99 75.5975 113.99C76.0082 113.99 76.3675 114.037 76.6755 114.13C76.8062 114.167 76.8715 114.256 76.8715 114.396V115.418C76.8715 115.567 76.8155 115.642 76.7035 115.642C76.6755 115.642 76.6428 115.637 76.6055 115.628C76.4188 115.591 76.2135 115.572 75.9895 115.572C75.5135 115.572 75.1775 115.675 74.9815 115.88C74.7855 116.085 74.6875 116.435 74.6875 116.93V117.336H76.5215C76.6895 117.336 76.7735 117.42 76.7735 117.588V118.61C76.7735 118.778 76.6895 118.862 76.5215 118.862H74.6875V123.748C74.6875 123.916 74.6035 124 74.4355 124H73.1755C73.0075 124 72.9235 123.916 72.9235 123.748V118.862H71.7755C71.6168 118.862 71.5375 118.778 71.5375 118.61V117.588C71.5375 117.42 71.6168 117.336 71.7755 117.336ZM77.4506 120.682C77.4506 119.665 77.7773 118.825 78.4306 118.162C79.0933 117.499 79.9473 117.168 80.9926 117.168C82.01 117.168 82.8406 117.49 83.4846 118.134C84.1286 118.778 84.4506 119.618 84.4506 120.654V120.836C84.4506 121.069 84.3386 121.186 84.1146 121.186H79.2146C79.364 122.241 79.98 122.768 81.0626 122.768C81.828 122.768 82.3273 122.539 82.5606 122.082C82.6353 121.951 82.7333 121.886 82.8546 121.886H84.0306C84.1146 121.886 84.1753 121.905 84.2126 121.942C84.2593 121.97 84.2826 122.003 84.2826 122.04C84.2826 122.059 84.278 122.077 84.2686 122.096C84.082 122.712 83.704 123.211 83.1346 123.594C82.5653 123.977 81.8653 124.168 81.0346 124.168C79.9613 124.168 79.0933 123.846 78.4306 123.202C77.7773 122.549 77.4506 121.709 77.4506 120.682ZM79.2426 120.024H82.6726C82.514 119.044 81.954 118.554 80.9926 118.554C80.0126 118.554 79.4293 119.044 79.2426 120.024ZM85.5717 120.682C85.5717 119.665 85.8984 118.825 86.5517 118.162C87.2144 117.499 88.0684 117.168 89.1137 117.168C90.1311 117.168 90.9617 117.49 91.6057 118.134C92.2497 118.778 92.5717 119.618 92.5717 120.654V120.836C92.5717 121.069 92.4597 121.186 92.2357 121.186H87.3357C87.4851 122.241 88.1011 122.768 89.1837 122.768C89.9491 122.768 90.4484 122.539 90.6817 122.082C90.7564 121.951 90.8544 121.886 90.9757 121.886H92.1517C92.2357 121.886 92.2964 121.905 92.3337 121.942C92.3804 121.97 92.4037 122.003 92.4037 122.04C92.4037 122.059 92.3991 122.077 92.3897 122.096C92.2031 122.712 91.8251 123.211 91.2557 123.594C90.6864 123.977 89.9864 124.168 89.1557 124.168C88.0824 124.168 87.2144 123.846 86.5517 123.202C85.8984 122.549 85.5717 121.709 85.5717 120.682ZM87.3637 120.024H90.7937C90.6351 119.044 90.0751 118.554 89.1137 118.554C88.1337 118.554 87.5504 119.044 87.3637 120.024ZM94.6308 118.162C95.2375 117.499 95.9935 117.168 96.8988 117.168C97.3655 117.168 97.7855 117.261 98.1588 117.448C98.5321 117.635 98.8121 117.901 98.9988 118.246H99.0548V114.452C99.0548 114.284 99.1388 114.2 99.3068 114.2H100.581C100.739 114.2 100.819 114.284 100.819 114.452V123.748C100.819 123.916 100.739 124 100.581 124H99.3348C99.1668 124 99.0828 123.916 99.0828 123.748V123.09H99.0268C98.8401 123.435 98.5601 123.701 98.1868 123.888C97.8135 124.075 97.3935 124.168 96.9268 124.168C96.0121 124.168 95.2468 123.837 94.6308 123.174C94.0148 122.502 93.7068 121.667 93.7068 120.668C93.7068 119.669 94.0148 118.834 94.6308 118.162ZM95.4988 120.668C95.4988 121.219 95.6621 121.676 95.9888 122.04C96.3248 122.395 96.7635 122.572 97.3048 122.572C97.8461 122.572 98.2801 122.395 98.6068 122.04C98.9428 121.676 99.1108 121.219 99.1108 120.668C99.1108 120.117 98.9428 119.665 98.6068 119.31C98.2801 118.955 97.8461 118.778 97.3048 118.778C96.7635 118.778 96.3295 118.955 96.0028 119.31C95.6668 119.665 95.4988 120.117 95.4988 120.668ZM106.033 123.748V117.588C106.033 117.42 106.113 117.336 106.271 117.336H107.489C107.657 117.336 107.741 117.42 107.741 117.588V118.316H107.797C107.965 117.952 108.222 117.672 108.567 117.476C108.922 117.271 109.328 117.168 109.785 117.168C110.756 117.168 111.442 117.588 111.843 118.428H111.885C112.091 118.027 112.389 117.719 112.781 117.504C113.183 117.28 113.64 117.168 114.153 117.168C114.909 117.168 115.502 117.415 115.931 117.91C116.37 118.395 116.589 119.072 116.589 119.94V123.748C116.589 123.916 116.51 124 116.351 124H115.077C114.909 124 114.825 123.916 114.825 123.748V120.388C114.825 119.324 114.415 118.792 113.593 118.792C113.173 118.792 112.833 118.937 112.571 119.226C112.319 119.506 112.193 119.903 112.193 120.416V123.748C112.193 123.916 112.109 124 111.941 124H110.681C110.513 124 110.429 123.916 110.429 123.748V120.388C110.429 119.324 110.019 118.792 109.197 118.792C108.777 118.792 108.437 118.937 108.175 119.226C107.923 119.506 107.797 119.903 107.797 120.416V123.748C107.797 123.916 107.713 124 107.545 124H106.271C106.113 124 106.033 123.916 106.033 123.748ZM118.492 124.728H119.71C119.84 124.728 119.929 124.803 119.976 124.952C120.162 125.465 120.648 125.722 121.432 125.722C122.533 125.722 123.084 125.153 123.084 124.014V122.866H123.028C122.85 123.202 122.57 123.468 122.188 123.664C121.814 123.86 121.376 123.958 120.872 123.958C120.069 123.958 119.439 123.715 118.982 123.23C118.534 122.745 118.31 122.068 118.31 121.2V117.588C118.31 117.42 118.394 117.336 118.562 117.336H119.836C119.994 117.336 120.074 117.42 120.074 117.588V120.766C120.074 121.839 120.531 122.376 121.446 122.376C121.931 122.376 122.314 122.231 122.594 121.942C122.874 121.653 123.014 121.251 123.014 120.738V117.588C123.014 117.42 123.098 117.336 123.266 117.336H124.526C124.694 117.336 124.778 117.42 124.778 117.588V124.014C124.778 125.013 124.479 125.792 123.882 126.352C123.294 126.912 122.477 127.192 121.432 127.192C120.526 127.192 119.794 126.991 119.234 126.59C118.683 126.198 118.356 125.661 118.254 124.98C118.254 124.961 118.254 124.943 118.254 124.924C118.254 124.793 118.333 124.728 118.492 124.728ZM129.986 123.748V114.452C129.986 114.284 130.066 114.2 130.225 114.2H131.499C131.667 114.2 131.751 114.284 131.751 114.452V118.246H131.807C131.993 117.901 132.273 117.635 132.647 117.448C133.02 117.261 133.44 117.168 133.907 117.168C134.812 117.168 135.568 117.504 136.175 118.176C136.791 118.839 137.099 119.669 137.099 120.668C137.099 121.667 136.791 122.502 136.175 123.174C135.559 123.837 134.793 124.168 133.879 124.168C133.412 124.168 132.992 124.075 132.619 123.888C132.245 123.701 131.965 123.435 131.779 123.09H131.723V123.748C131.723 123.916 131.639 124 131.471 124H130.225C130.066 124 129.986 123.916 129.986 123.748ZM132.199 122.026C132.525 122.39 132.959 122.572 133.501 122.572C134.042 122.572 134.476 122.395 134.803 122.04C135.139 121.676 135.307 121.219 135.307 120.668C135.307 120.117 135.139 119.665 134.803 119.31C134.476 118.955 134.042 118.778 133.501 118.778C132.959 118.778 132.521 118.955 132.185 119.31C131.858 119.665 131.695 120.117 131.695 120.668C131.695 121.219 131.863 121.671 132.199 122.026ZM139.16 118.162C139.776 117.499 140.546 117.168 141.47 117.168C141.936 117.168 142.356 117.261 142.73 117.448C143.103 117.635 143.383 117.901 143.57 118.246H143.612V117.588C143.612 117.42 143.696 117.336 143.864 117.336H145.096C145.264 117.336 145.348 117.42 145.348 117.588V123.748C145.348 123.916 145.264 124 145.096 124H143.864C143.696 124 143.612 123.916 143.612 123.748V123.09H143.57C143.383 123.435 143.103 123.701 142.73 123.888C142.356 124.075 141.936 124.168 141.47 124.168C140.546 124.168 139.776 123.837 139.16 123.174C138.544 122.502 138.236 121.667 138.236 120.668C138.236 119.669 138.544 118.834 139.16 118.162ZM140.546 122.026C140.872 122.39 141.306 122.572 141.848 122.572C142.389 122.572 142.823 122.395 143.15 122.04C143.476 121.676 143.64 121.219 143.64 120.668C143.64 120.117 143.476 119.665 143.15 119.31C142.823 118.955 142.389 118.778 141.848 118.778C141.306 118.778 140.872 118.955 140.546 119.31C140.21 119.665 140.042 120.117 140.042 120.668C140.042 121.219 140.21 121.671 140.546 122.026ZM147.186 123.748V114.452C147.186 114.284 147.265 114.2 147.424 114.2H148.698C148.866 114.2 148.95 114.284 148.95 114.452V118.246H149.006C149.192 117.901 149.472 117.635 149.846 117.448C150.219 117.261 150.639 117.168 151.106 117.168C152.011 117.168 152.767 117.504 153.374 118.176C153.99 118.839 154.298 119.669 154.298 120.668C154.298 121.667 153.99 122.502 153.374 123.174C152.758 123.837 151.992 124.168 151.078 124.168C150.611 124.168 150.191 124.075 149.818 123.888C149.444 123.701 149.164 123.435 148.978 123.09H148.922V123.748C148.922 123.916 148.838 124 148.67 124H147.424C147.265 124 147.186 123.916 147.186 123.748ZM149.398 122.026C149.724 122.39 150.158 122.572 150.7 122.572C151.241 122.572 151.675 122.395 152.002 122.04C152.338 121.676 152.506 121.219 152.506 120.668C152.506 120.117 152.338 119.665 152.002 119.31C151.675 118.955 151.241 118.778 150.7 118.778C150.158 118.778 149.72 118.955 149.384 119.31C149.057 119.665 148.894 120.117 148.894 120.668C148.894 121.219 149.062 121.671 149.398 122.026ZM155.939 124.728H157.157C157.288 124.728 157.376 124.803 157.423 124.952C157.61 125.465 158.095 125.722 158.879 125.722C159.98 125.722 160.531 125.153 160.531 124.014V122.866H160.475C160.298 123.202 160.018 123.468 159.635 123.664C159.262 123.86 158.823 123.958 158.319 123.958C157.516 123.958 156.886 123.715 156.429 123.23C155.981 122.745 155.757 122.068 155.757 121.2V117.588C155.757 117.42 155.841 117.336 156.009 117.336H157.283C157.442 117.336 157.521 117.42 157.521 117.588V120.766C157.521 121.839 157.978 122.376 158.893 122.376C159.378 122.376 159.761 122.231 160.041 121.942C160.321 121.653 160.461 121.251 160.461 120.738V117.588C160.461 117.42 160.545 117.336 160.713 117.336H161.973C162.141 117.336 162.225 117.42 162.225 117.588V124.014C162.225 125.013 161.926 125.792 161.329 126.352C160.741 126.912 159.924 127.192 158.879 127.192C157.974 127.192 157.241 126.991 156.681 126.59C156.13 126.198 155.804 125.661 155.701 124.98C155.701 124.961 155.701 124.943 155.701 124.924C155.701 124.793 155.78 124.728 155.939 124.728Z" fill="#1E1E1E"/>
<path d="M22.023 141.78V134.52C22.023 134.373 22.0963 134.3 22.243 134.3H26.995C27.1417 134.3 27.215 134.373 27.215 134.52V135.004C27.215 135.151 27.1417 135.224 26.995 135.224H23.024V137.809H26.456C26.6027 137.809 26.676 137.882 26.676 138.029V138.513C26.676 138.66 26.6027 138.733 26.456 138.733H23.024V141.78C23.024 141.927 22.9507 142 22.804 142H22.243C22.0963 142 22.023 141.927 22.023 141.78ZM28.7059 136.874H29.2009C29.3476 136.874 29.4209 136.947 29.4209 137.094V137.897H29.4319C29.7326 137.156 30.2863 136.786 31.0929 136.786C31.1663 136.786 31.2689 136.793 31.4009 136.808C31.5256 136.837 31.5879 136.922 31.5879 137.061V137.49C31.5879 137.615 31.5293 137.677 31.4119 137.677C31.3973 137.677 31.3789 137.677 31.3569 137.677C31.3056 137.67 31.2139 137.666 31.0819 137.666C30.5613 137.666 30.1543 137.838 29.8609 138.183C29.5749 138.528 29.4319 139.056 29.4319 139.767V141.78C29.4319 141.927 29.3586 142 29.2119 142H28.7059C28.5593 142 28.4859 141.927 28.4859 141.78V137.094C28.4859 136.947 28.5593 136.874 28.7059 136.874ZM32.7184 137.094C32.7184 136.947 32.7917 136.874 32.9384 136.874H33.4444C33.591 136.874 33.6644 136.947 33.6644 137.094V141.78C33.6644 141.927 33.591 142 33.4444 142H32.9384C32.7917 142 32.7184 141.927 32.7184 141.78V137.094ZM32.5094 135.235C32.5094 135.037 32.5717 134.876 32.6964 134.751C32.8284 134.619 32.9934 134.553 33.1914 134.553C33.3894 134.553 33.5507 134.619 33.6754 134.751C33.8074 134.876 33.8734 135.037 33.8734 135.235C33.8734 135.426 33.811 135.587 33.6864 135.719C33.5544 135.851 33.3894 135.917 33.1914 135.917C32.9934 135.917 32.8284 135.851 32.6964 135.719C32.5717 135.587 32.5094 135.426 32.5094 135.235ZM35.0414 143.408L35.5254 140.823C35.5474 140.691 35.6244 140.625 35.7564 140.625H36.3064C36.4384 140.625 36.5044 140.68 36.5044 140.79C36.5044 140.812 36.5007 140.838 36.4934 140.867L35.8114 143.463C35.7747 143.588 35.6941 143.65 35.5694 143.65H35.2394C35.1074 143.65 35.0414 143.588 35.0414 143.463C35.0414 143.448 35.0414 143.43 35.0414 143.408ZM41.7852 135.345C42.5405 134.575 43.4682 134.19 44.5682 134.19C45.6682 134.19 46.5995 134.575 47.3622 135.345C48.1249 136.115 48.5062 137.05 48.5062 138.15C48.5062 139.25 48.1249 140.185 47.3622 140.955C46.5995 141.725 45.6682 142.11 44.5682 142.11C43.4682 142.11 42.5369 141.725 41.7742 140.955C41.0189 140.185 40.6412 139.25 40.6412 138.15C40.6412 137.05 41.0225 136.115 41.7852 135.345ZM42.4892 140.306C43.0319 140.878 43.7249 141.164 44.5682 141.164C45.4189 141.164 46.1119 140.878 46.6472 140.306C47.1899 139.734 47.4612 139.015 47.4612 138.15C47.4612 137.285 47.1899 136.566 46.6472 135.994C46.1119 135.422 45.4189 135.136 44.5682 135.136C43.7249 135.136 43.0319 135.422 42.4892 135.994C41.9465 136.566 41.6752 137.285 41.6752 138.15C41.6752 139.015 41.9465 139.734 42.4892 140.306ZM50.4423 137.523C50.9336 137.017 51.5716 136.764 52.3563 136.764C52.9869 136.764 53.5259 136.929 53.9733 137.259C54.4206 137.582 54.7029 138.011 54.8203 138.546C54.8203 138.568 54.8203 138.586 54.8203 138.601C54.8203 138.718 54.7506 138.777 54.6113 138.777H54.0723C53.9476 138.777 53.8669 138.715 53.8303 138.59C53.6249 137.945 53.1373 137.622 52.3673 137.622C51.8539 137.622 51.4396 137.794 51.1243 138.139C50.8163 138.476 50.6623 138.909 50.6623 139.437C50.6623 139.972 50.8163 140.412 51.1243 140.757C51.4396 141.094 51.8539 141.263 52.3673 141.263C52.7266 141.263 53.0346 141.179 53.2913 141.01C53.5479 140.841 53.7276 140.603 53.8303 140.295C53.8669 140.17 53.9439 140.108 54.0613 140.108H54.6003C54.6736 140.108 54.7286 140.126 54.7653 140.163C54.8019 140.192 54.8203 140.225 54.8203 140.262C54.8203 140.284 54.8166 140.302 54.8093 140.317C54.6993 140.852 54.4206 141.285 53.9733 141.615C53.5259 141.945 52.9869 142.11 52.3563 142.11C51.5716 142.11 50.9299 141.857 50.4313 141.351C49.9399 140.838 49.6943 140.2 49.6943 139.437C49.6943 138.674 49.9436 138.036 50.4423 137.523ZM55.53 137.468V137.094C55.53 136.947 55.5997 136.874 55.739 136.874H56.718V135.664C56.718 135.517 56.7914 135.444 56.938 135.444H57.455C57.5944 135.444 57.664 135.517 57.664 135.664V136.874H59.457C59.6037 136.874 59.677 136.947 59.677 137.094V137.468C59.677 137.615 59.6037 137.688 59.457 137.688H57.664V140.174C57.664 140.57 57.7484 140.852 57.917 141.021C58.0857 141.182 58.3534 141.263 58.72 141.263C59.006 141.263 59.2627 141.219 59.49 141.131C59.5414 141.109 59.5854 141.098 59.622 141.098C59.7027 141.098 59.743 141.16 59.743 141.285V141.681C59.743 141.791 59.688 141.872 59.578 141.923C59.2774 142.048 58.9364 142.11 58.555 142.11C57.3304 142.11 56.718 141.479 56.718 140.218V137.688H55.739C55.5997 137.688 55.53 137.615 55.53 137.468ZM63.3248 136.049V135.543C63.3248 135.426 63.3762 135.338 63.4788 135.279L65.0408 134.377C65.1215 134.326 65.2132 134.3 65.3158 134.3H65.7448C65.8915 134.3 65.9648 134.373 65.9648 134.52V141.78C65.9648 141.927 65.8915 142 65.7448 142H65.2058C65.0665 142 64.9968 141.927 64.9968 141.78V135.389L63.5888 136.192C63.5448 136.221 63.5045 136.236 63.4678 136.236C63.4458 136.236 63.4165 136.225 63.3798 136.203C63.3432 136.181 63.3248 136.13 63.3248 136.049ZM68.1397 139.91C68.4404 139.463 68.9427 139.041 69.6467 138.645L70.4167 138.205C70.9227 137.919 71.2894 137.629 71.5167 137.336C71.7441 137.043 71.8577 136.727 71.8577 136.39C71.8577 136.001 71.7257 135.69 71.4617 135.455C71.1977 135.213 70.8384 135.092 70.3837 135.092C69.9217 135.092 69.5441 135.224 69.2507 135.488C68.9647 135.745 68.7961 136.097 68.7447 136.544C68.7301 136.691 68.6567 136.764 68.5247 136.764H67.9417C67.8024 136.764 67.7327 136.702 67.7327 136.577C67.7327 136.57 67.7327 136.559 67.7327 136.544C67.7914 135.818 68.0554 135.246 68.5247 134.828C69.0014 134.403 69.6137 134.19 70.3617 134.19C71.1024 134.19 71.7037 134.395 72.1657 134.806C72.6277 135.209 72.8587 135.745 72.8587 136.412C72.8587 136.896 72.7194 137.332 72.4407 137.721C72.1621 138.11 71.7074 138.484 71.0767 138.843L70.3067 139.283C69.7274 139.613 69.3204 139.914 69.0857 140.185C68.8584 140.449 68.7374 140.75 68.7227 141.087H72.6717C72.8111 141.087 72.8807 141.157 72.8807 141.296V141.78C72.8807 141.927 72.8111 142 72.6717 142H67.8977C67.7584 142 67.6887 141.927 67.6887 141.78V141.461C67.6887 140.882 67.8391 140.365 68.1397 139.91ZM74.0678 143.408L74.5518 140.823C74.5738 140.691 74.6508 140.625 74.7828 140.625H75.3328C75.4648 140.625 75.5308 140.68 75.5308 140.79C75.5308 140.812 75.5271 140.838 75.5198 140.867L74.8378 143.463C74.8011 143.588 74.7204 143.65 74.5958 143.65H74.2658C74.1338 143.65 74.0678 143.588 74.0678 143.463C74.0678 143.448 74.0678 143.43 74.0678 143.408ZM79.5026 136.049V135.543C79.5026 135.426 79.5539 135.338 79.6566 135.279L81.2186 134.377C81.2992 134.326 81.3909 134.3 81.4936 134.3H81.9226C82.0692 134.3 82.1426 134.373 82.1426 134.52V141.78C82.1426 141.927 82.0692 142 81.9226 142H81.3836C81.2442 142 81.1746 141.927 81.1746 141.78V135.389L79.7666 136.192C79.7226 136.221 79.6822 136.236 79.6456 136.236C79.6236 136.236 79.5942 136.225 79.5576 136.203C79.5209 136.181 79.5026 136.13 79.5026 136.049ZM83.9215 138.15C83.9215 136.925 84.2001 135.961 84.7575 135.257C85.3148 134.546 86.0518 134.19 86.9685 134.19C87.8851 134.19 88.6221 134.546 89.1795 135.257C89.7441 135.961 90.0265 136.925 90.0265 138.15C90.0265 139.375 89.7478 140.339 89.1905 141.043C88.6258 141.754 87.8851 142.11 86.9685 142.11C86.0518 142.11 85.3148 141.758 84.7575 141.054C84.2001 140.343 83.9215 139.375 83.9215 138.15ZM84.9335 138.15C84.9335 139.147 85.1095 139.906 85.4615 140.427C85.8135 140.948 86.3158 141.208 86.9685 141.208C87.6211 141.208 88.1235 140.948 88.4755 140.427C88.8348 139.906 89.0145 139.147 89.0145 138.15C89.0145 137.153 88.8348 136.394 88.4755 135.873C88.1235 135.352 87.6211 135.092 86.9685 135.092C86.3158 135.092 85.8135 135.352 85.4615 135.873C85.1095 136.394 84.9335 137.153 84.9335 138.15ZM91.317 140.889C91.4417 140.764 91.6067 140.702 91.812 140.702C92.0173 140.702 92.1823 140.768 92.307 140.9C92.439 141.025 92.505 141.19 92.505 141.395C92.505 141.608 92.4427 141.776 92.318 141.901C92.1933 142.026 92.0247 142.088 91.812 142.088C91.6067 142.088 91.438 142.026 91.306 141.901C91.1813 141.769 91.119 141.6 91.119 141.395C91.119 141.19 91.185 141.021 91.317 140.889ZM93.6109 138.15C93.6109 136.925 93.8896 135.961 94.4469 135.257C95.0042 134.546 95.7412 134.19 96.6579 134.19C97.5746 134.19 98.3116 134.546 98.8689 135.257C99.4336 135.961 99.7159 136.925 99.7159 138.15C99.7159 139.375 99.4372 140.339 98.8799 141.043C98.3152 141.754 97.5746 142.11 96.6579 142.11C95.7412 142.11 95.0042 141.758 94.4469 141.054C93.8896 140.343 93.6109 139.375 93.6109 138.15ZM94.6229 138.15C94.6229 139.147 94.7989 139.906 95.1509 140.427C95.5029 140.948 96.0052 141.208 96.6579 141.208C97.3106 141.208 97.8129 140.948 98.1649 140.427C98.5242 139.906 98.7039 139.147 98.7039 138.15C98.7039 137.153 98.5242 136.394 98.1649 135.873C97.8129 135.352 97.3106 135.092 96.6579 135.092C96.0052 135.092 95.5029 135.352 95.1509 135.873C94.7989 136.394 94.6229 137.153 94.6229 138.15ZM101.012 138.15C101.012 136.925 101.291 135.961 101.848 135.257C102.406 134.546 103.143 134.19 104.059 134.19C104.976 134.19 105.713 134.546 106.27 135.257C106.835 135.961 107.117 136.925 107.117 138.15C107.117 139.375 106.839 140.339 106.281 141.043C105.717 141.754 104.976 142.11 104.059 142.11C103.143 142.11 102.406 141.758 101.848 141.054C101.291 140.343 101.012 139.375 101.012 138.15ZM102.024 138.15C102.024 139.147 102.2 139.906 102.552 140.427C102.904 140.948 103.407 141.208 104.059 141.208C104.712 141.208 105.214 140.948 105.566 140.427C105.926 139.906 106.105 139.147 106.105 138.15C106.105 137.153 105.926 136.394 105.566 135.873C105.214 135.352 104.712 135.092 104.059 135.092C103.407 135.092 102.904 135.352 102.552 135.873C102.2 136.394 102.024 137.153 102.024 138.15ZM107.943 141.747L110.99 134.465C111.027 134.355 111.111 134.3 111.243 134.3H111.804C111.936 134.3 112.021 134.355 112.057 134.465L115.104 141.747C115.119 141.791 115.126 141.828 115.126 141.857C115.126 141.886 115.115 141.919 115.093 141.956C115.079 141.985 115.031 142 114.95 142H114.356C114.224 142 114.14 141.945 114.103 141.835L113.454 140.251H109.593L108.944 141.835C108.908 141.945 108.823 142 108.691 142H108.108C107.976 142 107.91 141.956 107.91 141.868C107.91 141.839 107.921 141.798 107.943 141.747ZM113.091 139.349L111.54 135.532H111.518L109.956 139.349H113.091ZM116.645 134.3H117.272C117.39 134.3 117.478 134.348 117.536 134.443L120.418 139.008H120.44L123.322 134.443C123.381 134.348 123.469 134.3 123.586 134.3H124.213C124.36 134.3 124.433 134.373 124.433 134.52V141.78C124.433 141.927 124.36 142 124.213 142H123.652C123.513 142 123.443 141.927 123.443 141.78V136.016H123.421L120.913 139.965C120.855 140.06 120.767 140.108 120.649 140.108H120.209C120.092 140.108 120.004 140.06 119.945 139.965L117.437 136.016H117.426V141.78C117.426 141.927 117.353 142 117.206 142H116.645C116.499 142 116.425 141.927 116.425 141.78V134.52C116.425 134.373 116.499 134.3 116.645 134.3Z" fill="#374151"/>
<defs>
<linearGradient id="paint0_linear_216_1759" x1="199.5" y1="40" x2="199.5" y2="250" gradientUnits="userSpaceOnUse">
<stop stop-color="white" stop-opacity="0.2"/>
<stop offset="1" stop-color="white" stop-opacity="0"/>
<stop offset="1" stop-color="white" stop-opacity="0"/>
</linearGradient>
<clipPath id="clip0_216_1759">
<rect x="39" y="40" width="321" height="210" rx="10.7598" fill="white"/>
</clipPath>
</defs>
</svg>
