<svg width="24" height="22" viewBox="0 0 24 22" fill="none" xmlns="http://www.w3.org/2000/svg">
<g clip-path="url(#clip0_141_1596)">
<path d="M16.6667 4V4.02917C16.4458 4.0125 16.225 4 16 4H10.6667C9.97917 4 9.3125 4.0875 8.675 4.25C8.67083 4.16667 8.66667 4.08333 8.66667 4C8.66667 1.79167 10.4583 0 12.6667 0C14.875 0 16.6667 1.79167 16.6667 4ZM16 5.33333C16.1458 5.33333 16.2917 5.3375 16.4333 5.34583C16.6083 5.35833 16.7833 5.375 16.9583 5.4C17.6917 4.54583 18.7833 4 20 4H21.3333L20.55 7.12917C21.2083 7.74583 21.7458 8.49583 22.1125 9.33333H22.6667C23.4042 9.33333 24 9.92917 24 10.6667V14.6667C24 15.4042 23.4042 16 22.6667 16H21.3333C20.9542 16.5042 20.5042 16.9542 20 17.3333V20C20 20.7375 19.4042 21.3333 18.6667 21.3333H17.3333C16.5958 21.3333 16 20.7375 16 20V18.6667H10.6667V20C10.6667 20.7375 10.0708 21.3333 9.33333 21.3333H8C7.2625 21.3333 6.66667 20.7375 6.66667 20V17.3333C5.2125 16.2417 4.22083 14.5708 4.03333 12.6667H2.83333C1.26667 12.6667 0 11.4 0 9.83333C0 8.26667 1.26667 7 2.83333 7H3C3.55417 7 4 7.44583 4 8C4 8.55417 3.55417 9 3 9H2.83333C2.375 9 2 9.375 2 9.83333C2 10.2917 2.375 10.6667 2.83333 10.6667H4.13333C4.6375 8.175 6.5375 6.1875 8.97917 5.55C9.51667 5.40833 10.0833 5.33333 10.6667 5.33333H16ZM18.6667 11C18.6667 10.7348 18.5613 10.4804 18.3738 10.2929C18.1862 10.1054 17.9319 10 17.6667 10C17.4015 10 17.1471 10.1054 16.9596 10.2929C16.772 10.4804 16.6667 10.7348 16.6667 11C16.6667 11.2652 16.772 11.5196 16.9596 11.7071C17.1471 11.8946 17.4015 12 17.6667 12C17.9319 12 18.1862 11.8946 18.3738 11.7071C18.5613 11.5196 18.6667 11.2652 18.6667 11Z" fill="#374151"/>
</g>
<defs>
<clipPath id="clip0_141_1596">
<rect width="24" height="21.3333" fill="white"/>
</clipPath>
</defs>
</svg>
