<svg width="80" height="80" viewBox="0 0 80 80" fill="none" xmlns="http://www.w3.org/2000/svg">
<path d="M30.9001 39.6219L30.8914 40.1305H31.4H36.09C37.5749 40.1305 38.68 41.2377 38.68 42.7105V45.7105C38.68 47.1943 37.5739 48.3005 36.09 48.3005H33.09C31.6651 48.3005 30.5 47.1433 30.5 45.7105V40.3205C30.5 37.4311 30.7974 35.7841 31.4488 34.621C32.0948 33.4673 33.1265 32.7196 34.8146 31.7208L34.8146 31.7208L34.8192 31.7181C34.912 31.6618 35.0283 31.6959 35.0767 31.7799L35.0767 31.78L35.079 31.784C35.1394 31.8866 35.1082 32.0028 35.0124 32.0619C33.5928 32.9029 32.5338 33.5768 31.8611 34.6877C31.1887 35.7981 30.9403 37.2751 30.9001 39.6219Z" fill="#1E1E1E" stroke="#1E1E1E"/>
<path d="M41.7196 39.6219L41.7109 40.1305H42.2196H46.9096C48.3939 40.1305 49.498 41.2365 49.4896 42.7176H49.4896V42.7205V45.7205C49.4896 47.2043 48.3834 48.3105 46.8996 48.3105H43.8996C42.4747 48.3105 41.3096 47.1533 41.3096 45.7205V40.3305C41.3096 37.436 41.607 35.7864 42.2584 34.6221C42.9044 33.4674 43.9358 32.7198 45.6235 31.7212C45.7256 31.6614 45.841 31.6921 45.9003 31.7868C45.9584 31.8887 45.9269 32.0033 45.832 32.0619C44.4124 32.9029 43.3534 33.5768 42.6806 34.6877C42.0082 35.7981 41.7598 37.2751 41.7196 39.6219Z" fill="#1E1E1E" stroke="#1E1E1E"/>
</svg>
