<svg width="24" height="24" viewBox="0 0 24 24" fill="none" xmlns="http://www.w3.org/2000/svg">
<path d="M15.9 7.19961C15.9 8.15439 15.5207 9.07006 14.8456 9.74519C14.1705 10.4203 13.2548 10.7996 12.3 10.7996C11.3452 10.7996 10.4295 10.4203 9.75442 9.74519C9.07928 9.07006 8.7 8.15439 8.7 7.19961C8.7 6.24483 9.07928 5.32916 9.75442 4.65403C10.4295 3.97889 11.3452 3.59961 12.3 3.59961C13.2548 3.59961 14.1705 3.97889 14.8456 4.65403C15.5207 5.32916 15.9 6.24483 15.9 7.19961ZM21.9 9.59961C21.9 10.2361 21.6471 10.8466 21.1971 11.2967C20.747 11.7468 20.1365 11.9996 19.5 11.9996C18.8635 11.9996 18.253 11.7468 17.8029 11.2967C17.3529 10.8466 17.1 10.2361 17.1 9.59961C17.1 8.96309 17.3529 8.35264 17.8029 7.90255C18.253 7.45247 18.8635 7.19961 19.5 7.19961C20.1365 7.19961 20.747 7.45247 21.1971 7.90255C21.6471 8.35264 21.9 8.96309 21.9 9.59961ZM17.1 17.9996C17.1 16.7266 16.5943 15.5057 15.6941 14.6055C14.7939 13.7053 13.573 13.1996 12.3 13.1996C11.027 13.1996 9.80606 13.7053 8.90589 14.6055C8.00571 15.5057 7.5 16.7266 7.5 17.9996V21.5996H17.1V17.9996ZM7.5 9.59961C7.5 10.2361 7.24714 10.8466 6.79706 11.2967C6.34697 11.7468 5.73652 11.9996 5.1 11.9996C4.46348 11.9996 3.85303 11.7468 3.40294 11.2967C2.95286 10.8466 2.7 10.2361 2.7 9.59961C2.7 8.96309 2.95286 8.35264 3.40294 7.90255C3.85303 7.45247 4.46348 7.19961 5.1 7.19961C5.73652 7.19961 6.34697 7.45247 6.79706 7.90255C7.24714 8.35264 7.5 8.96309 7.5 9.59961ZM19.5 21.5996V17.9996C19.5017 16.7795 19.1919 15.5792 18.6 14.5124C19.132 14.3763 19.6881 14.3634 20.2258 14.4749C20.7636 14.5863 21.2687 14.8191 21.7028 15.1555C22.1369 15.4919 22.4884 15.923 22.7305 16.4159C22.9727 16.9088 23.0991 17.4504 23.1 17.9996V21.5996H19.5ZM6 14.5124C5.4081 15.5793 5.09832 16.7796 5.1 17.9996V21.5996H1.5V17.9996C1.49977 17.4501 1.62536 16.9077 1.86714 16.4142C2.10892 15.9207 2.46047 15.4891 2.89486 15.1525C3.32925 14.8159 3.83494 14.5832 4.37317 14.4722C4.91141 14.3613 5.4679 14.375 6 14.5124Z" fill="#374151"/>
</svg>
